@startuml
class Movie {
    + id : int? <<get>> <<set>>
    + name : string? <<get>> <<set>>
    + thumbnail : string? <<get>> <<set>>
    + highlight : bool <<get>> <<set>>
}
class "Dictionary`2"<T1,T2> {
}
Movie --> "webm<string,string>" "Dictionary`2"
Movie --> "mp4<string,string>" "Dictionary`2"
@enduml
